<?xml version="1.0" encoding="UTF-8" standalone="no"?>
<svg
   width="80"
   height="80"
   viewBox="0 0 100 100"
   version="1.1"
   id="svg3"
   sodipodi:docname="focus-painting.svg"
   inkscape:version="1.4.3 (0d15f75042, 2025-12-25)"
   xmlns:inkscape="http://www.inkscape.org/namespaces/inkscape"
   xmlns:sodipodi="http://sodipodi.sourceforge.net/DTD/sodipodi-0.0.dtd"
   xmlns="http://www.w3.org/2000/svg"
   xmlns:svg="http://www.w3.org/2000/svg">
  <defs
     id="defs3">
    <inkscape:path-effect
       effect="taper_stroke"
       start_shape="center | center"
       end_shape="center | center"
       id="path-effect4"
       is_visible="true"
       lpeversion="1"
       stroke_width="5.6125002"
       subpath="1"
       attach_start="0.10963619"
       end_offset="2.2"
       start_smoothing="0.5"
       end_smoothing="0.5"
       jointype="extrapolated"
       miter_limit="100" />
  </defs>
  <sodipodi:namedview
     id="namedview3"
     pagecolor="#505050"
     bordercolor="#ffffff"
     borderopacity="1"
     inkscape:showpageshadow="0"
     inkscape:pageopacity="0"
     inkscape:pagecheckerboard="1"
     inkscape:deskcolor="#505050"
     inkscape:zoom="14.7625"
     inkscape:cx="39.96613"
     inkscape:cy="40"
     inkscape:window-width="2256"
     inkscape:window-height="1432"
     inkscape:window-x="0"
     inkscape:window-y="0"
     inkscape:window-maximized="1"
     inkscape:current-layer="svg3" />
  <!-- Brush handle -->
  <rect
     x="81.272194"
     y="-36.096752"
     width="11.958412"
     height="59.792061"
     rx="4.4844046"
     fill="currentColor"
     id="rect1"
     transform="rotate(30)" />
  <!-- Paint strokes -->
  <path
     fill="currentColor"
     d="m 66.299746,58.763759 c -7.62066,-5.673158 -17.74792,1.05602 -19.475021,9.568162 -2.370872,11.685014 3.629614,18.355507 -8.806098,22.015242 -3.172111,0.933528 23.285353,2.624894 32.260797,-14.902625 6.333382,-12.368021 -3.979678,-16.680779 -3.979678,-16.680779 z"
     id="path3"
     sodipodi:nodetypes="csssc" />
  <path
     fill="currentColor"
     fill-rule="nonzero"
     d="m 33.813416,93.341948 c 3.786453,0.273778 7.592172,-2.402067 7.592172,-2.402067 0,0 -3.590846,-2.935629 -7.18731,-3.195812 -5.228251,-0.378129 -9.762439,-0.934698 -13.051756,-1.560403 -2.192878,-0.417137 -3.867634,-0.900044 -4.607842,-1.225905 -0.246736,-0.108621 -0.38281,-0.201357 -0.355456,-0.180906 0.0022,0.0016 0.0054,0.0041 0.0097,0.0075 0.0039,0.0031 0.0086,0.0069 0.0142,0.01158 0.005,0.0042 0.01078,0.0091 0.01723,0.01482 0.0058,0.0051 0.01217,0.01087 0.01911,0.0173 0.0062,0.0058 0.01294,0.01214 0.02008,0.01909 0.06432,0.06258 0.169505,0.174207 0.284048,0.373635 0.916341,1.595426 -0.196372,2.547062 -0.426706,2.713677 -0.0128,0.0093 -0.01712,0.01167 -0.01332,0.0093 0.0042,-0.0026 0.01845,-0.01109 0.04197,-0.02353 0.02614,-0.01382 0.06375,-0.03252 0.111905,-0.05439 0.05351,-0.0243 0.120022,-0.05252 0.198527,-0.08321 0.08723,-0.03409 0.189254,-0.07124 0.305056,-0.110227 2.565369,-0.894934 5.565859,-1.136655 8.73304,-1.508027 3.205326,-0.336708 6.457931,-1.031908 9.561136,-2.347605 2.159805,-0.821077 4.480948,-2.255287 6.157316,-4.677186 0,0 6e-6,-9e-6 6e-6,-9e-6 0.654807,-0.986306 1.053246,-2.205234 1.088284,-3.558681 -0.03505,-1.42684 -0.460926,-2.674323 -1.124653,-3.658412 -2.02781,-2.904054 -4.881022,-4.446693 -7.363423,-5.409479 -3.797402,-1.653345 -7.235314,-3.220765 -10.08975,-5.483149 -1.052382,-0.868697 -1.961075,-1.659161 -2.408247,-2.565594 0,0 -2e-6,-4e-6 -2e-6,-4e-6 -0.30318,-0.587823 -0.441836,-1.301051 -0.218785,-1.76016 0.251179,-0.929295 1.355962,-1.74296 2.512237,-2.571731 2.157881,-1.423245 4.733062,-2.387225 7.159739,-3.21808 8.413892,-2.856629 17.372351,-4.416313 22.339998,-5.248581 5.517396,-0.924372 8.68008,-1.381256 8.68008,-1.381256 0,0 -3.191898,0.107112 -8.784136,0.510369 -5.097074,0.36755 -14.091507,1.125272 -23.035558,3.433462 -2.560557,0.653766 -5.411841,1.514808 -8.102357,3.009424 -1.486784,0.76195 -3.118328,1.985189 -4.147427,3.99712 -0.687787,1.63464 -0.624481,3.422233 0.09692,4.935688 0,0 4e-6,8e-6 4e-6,8e-6 0.82151,1.695416 2.02396,3.00905 3.255783,4.042946 3.235014,2.809503 6.953183,4.795794 10.775008,6.614646 2.174575,1.159484 4.287272,2.221643 5.044095,3.772438 0.190302,0.3826 0.327622,0.723299 0.273143,0.918609 0.01659,0.181774 -0.128716,0.467185 -0.317084,0.774431 0,0 -2e-6,3e-6 -2e-6,3e-6 -0.594382,1.061879 -2.132563,1.75573 -3.860557,2.553569 -2.461171,1.001334 -5.204568,1.506386 -8.062238,1.796138 -3.112491,0.277459 -6.513856,0.583452 -9.953224,1.709918 -1.229365,0.413854 -3.462781,1.330519 -3.729057,3.579039 -0.288308,2.434558 1.908918,3.667813 3.031985,4.162219 3.497002,1.539481 11.237715,2.648688 19.516091,3.247415 z"
     id="path4"
     sodipodi:nodetypes="cssc"
     inkscape:path-effect="#path-effect4"
     inkscape:original-d="M 41.405588,90.939881 C 17.95089,90.093141 2.3853409,85.764617 25.232854,83.403895 38.982538,81.983208 45.797946,74.569678 32.853514,68.670617 16.874547,61.388652 3.3869602,50.211686 61.812023,44.284506" />
</svg>
